<?xml version="1.0" encoding="UTF-8"?>
<svg version="1.1" xmlns="http://www.w3.org/2000/svg" width="213" height="212">
<path d="M0 0 C70.29 0 140.58 0 213 0 C213 69.96 213 139.92 213 212 C142.71 212 72.42 212 0 212 C0 142.04 0 72.08 0 0 Z " fill="#171717" transform="translate(0,0)"/>
<path d="M0 0 C4.11943101 3.32363184 7.7074978 6.36748021 8.3125 11.8125 C7.92835642 15.7307645 6.70743683 17.21293267 4 20 C1.15679899 21.4216005 -0.84620601 21.29445742 -4 21 C-6.4921875 19.390625 -6.4921875 19.390625 -8.875 17.25 C-19.06697897 8.59064945 -28.75078966 7.09535473 -41.88769531 7.78662109 C-51.58618746 8.7663347 -59.92744735 14.63964739 -66 22 C-71.47511138 30.675456 -74.18017845 38.55840444 -74.1875 48.75 C-74.19974609 49.63171875 -74.21199219 50.5134375 -74.22460938 51.421875 C-74.24820273 61.99169991 -70.9397201 72.25745733 -63.95703125 80.375 C-53.86298609 89.80801919 -43.56889814 92.51214486 -30.09375 92.28515625 C-22.22123176 91.92251016 -15.16712631 88.84559925 -9 84 C-8.21625 83.0925 -7.4325 82.185 -6.625 81.25 C-3.91110447 78.92380383 -3.31244209 78.60593519 0.0625 78.4375 C4 79 4 79 6.5 80.5625 C8.66040714 84.0731616 8.67890984 85.92654096 8 90 C3.5637419 99.46898787 -6.6400483 103.88217355 -15.9375 107.375 C-30.81098297 112.53473014 -46.68995976 110.91546002 -60.95703125 104.71484375 C-75.55359876 97.38593783 -85.80656555 85.35714795 -91 70 C-93.62756977 61.50145403 -93.19642145 52.79531615 -93 44 C-93.66 44 -94.32 44 -95 44 C-95.20625 44.598125 -95.4125 45.19625 -95.625 45.8125 C-97.63843195 49.01568719 -99.43830904 49.72796751 -103 51 C-107.41371129 51.81188669 -111.22123191 52.05384824 -115.17578125 49.7109375 C-117.2821339 47.91951525 -119.13918981 46.04497284 -121 44 C-121.67675781 43.28199219 -122.35351562 42.56398437 -123.05078125 41.82421875 C-128 36.39892285 -128 36.39892285 -128 34 C-132.82747447 36.40934063 -135.47403824 39.6924408 -138.6875 43.875 C-139.20715332 44.53830322 -139.72680664 45.20160645 -140.26220703 45.88500977 C-141.85013727 47.91677594 -143.4260955 49.95735758 -145 52 C-145.93075206 53.19940311 -146.86172946 54.3986314 -147.79296875 55.59765625 C-150.21054239 58.72029979 -152.61214355 61.85453461 -155 65 C-155.52803223 65.54132568 -156.05606445 66.08265137 -156.60009766 66.64038086 C-162.32282428 72.95502609 -161.75542987 79.50710181 -161.625 87.6875 C-161.59944815 90.2746252 -161.59094278 92.86198917 -161.6015625 95.44921875 C-161.58432129 96.58705811 -161.56708008 97.72489746 -161.54931641 98.8972168 C-162.09830859 102.67681682 -163.36130566 104.29474014 -166 107 C-169.12942465 108.56471233 -172.61082223 108.69701958 -176 108 C-178.55473392 105.93342037 -179.84177947 104.67818042 -180.59692383 101.44140625 C-181.44677251 79.2209723 -181.44677251 79.2209723 -176.375 72.5625 C-175.10436134 71.21959752 -173.83048455 69.87867112 -172.51123047 68.58349609 C-169.35161173 65.27278735 -166.70335578 61.51414777 -163.9375 57.875 C-162.72800875 56.31817344 -161.51584087 54.76342201 -160.30078125 53.2109375 C-159.73053223 52.48229492 -159.1602832 51.75365234 -158.57275391 51.00292969 C-156.00059556 47.72724091 -153.40846123 44.46849143 -150.7890625 41.23046875 C-149.51587861 39.6431587 -148.26267706 38.03973159 -147.0234375 36.42578125 C-136.62068364 22.99056439 -136.62068364 22.99056439 -130.9296875 21.43359375 C-125.82712981 21.13287267 -122.74012775 22.72738822 -119 26 C-116.82910839 28.52998647 -114.76084988 31.11082787 -112.734375 33.7578125 C-110.17344376 37.20077487 -110.17344376 37.20077487 -106.23828125 38.51953125 C-101.67716309 37.78777164 -99.88948105 35.15343403 -97.1875 31.6875 C-96.66542969 31.0495752 -96.14335938 30.41165039 -95.60546875 29.75439453 C-94.05199567 27.85015256 -92.52286862 25.92876244 -91 24 C-80.69516373 11.06341449 -71.10656586 0.17561879 -56 -7 C-55.2059375 -7.38027344 -54.411875 -7.76054688 -53.59375 -8.15234375 C-36.24009997 -14.78217132 -15.16440751 -9.1774694 0 0 Z " fill="#FAFAF9" transform="translate(198,68)"/>
<path d="M0 0 C0.70441727 -0.00817749 1.40883453 -0.01635498 2.13459778 -0.02478027 C4.464235 -0.04958033 6.79381159 -0.06613468 9.12353516 -0.08056641 C9.91992023 -0.08589008 10.71630531 -0.09121376 11.53682327 -0.09669876 C15.75061327 -0.12340452 19.96437388 -0.14278923 24.17822266 -0.15722656 C27.66449152 -0.17057674 31.15017657 -0.19845184 34.63623047 -0.23925781 C38.84781852 -0.28855405 43.05887626 -0.31334331 47.27074051 -0.32045364 C48.87433284 -0.32716783 50.47791326 -0.34239448 52.08134079 -0.36634445 C54.32699015 -0.39797858 56.57059243 -0.39803708 58.81640625 -0.390625 C60.09309174 -0.39871185 61.36977722 -0.40679871 62.68515015 -0.41513062 C66.94176898 0.3568521 68.41144208 1.81884217 71.03759766 5.19287109 C71.7766293 9.33144831 71.59000203 11.29877664 69.37670898 14.88110352 C64.83511479 19.11465025 57.77151591 17.79562518 51.98681641 17.68115234 C50.6039203 17.67181945 49.22100758 17.66470558 47.83808899 17.65971375 C44.2093999 17.64068058 40.58172162 17.59161429 36.95343018 17.53619385 C33.24659904 17.4849202 29.53960355 17.46218256 25.83251953 17.43701172 C18.56708622 17.38348962 11.30248391 17.29822439 4.03759766 17.19287109 C4.084729 18.17046387 4.13186035 19.14805664 4.18041992 20.15527344 C4.34486861 23.82605097 4.44717667 27.4965136 4.53198242 31.16992188 C4.57689989 32.75121004 4.63806395 34.33213174 4.71655273 35.91210938 C5.43246708 50.70767241 5.43246708 50.70767241 -0.28271484 57.00537109 C-1.8345849 58.41012197 -3.39405968 59.80653528 -4.96240234 61.19287109 C-6.65422037 63.34609403 -8.21118227 65.5458131 -9.77099609 67.79443359 C-10.36074219 68.48666016 -10.36074219 68.48666016 -10.96240234 69.19287109 C-11.62240234 69.19287109 -12.28240234 69.19287109 -12.96240234 69.19287109 C-13.03193024 60.91742278 -13.08522753 52.64209662 -13.11783886 44.36642838 C-13.13349114 40.52364023 -13.15472107 36.681052 -13.1887207 32.83837891 C-13.2213303 29.12957546 -13.23925866 25.42096425 -13.24703407 21.7120285 C-13.25257476 20.29743168 -13.26339446 18.88284531 -13.27959251 17.46833038 C-13.30138535 15.48631562 -13.30262791 13.5041072 -13.30297852 11.52197266 C-13.30964035 10.39390198 -13.31630219 9.2658313 -13.32316589 8.10357666 C-12.91948447 4.8466019 -12.26529372 3.49675366 -9.96240234 1.19287109 C-6.46993449 0.02871514 -3.68617768 0.03717824 0 0 Z " fill="#FBFBFB" transform="translate(30.96240234375,58.80712890625)"/>
<path d="M0 0 C0.33 0 0.66 0 1 0 C1 20.46 1 40.92 1 62 C1.66 62 2.32 62 3 62 C3.32291016 61.21689453 3.32291016 61.21689453 3.65234375 60.41796875 C5.5455878 57.02110478 8.02543529 54.24587955 10.5625 51.3125 C11.06974609 50.71888672 11.57699219 50.12527344 12.09960938 49.51367188 C15.75496032 45.24503968 15.75496032 45.24503968 17 44 C17.15986946 41.48143825 17.25941894 38.98635826 17.31640625 36.46484375 C17.33505737 35.79747192 17.3537085 35.1301001 17.3729248 34.44250488 C17.44140741 31.94097583 17.50143787 29.43922118 17.5625 26.9375 C17.706875 21.348125 17.85125 15.75875 18 10 C38.13 10 58.26 10 79 10 C79 10.33 79 10.66 79 11 C59.2 11 39.4 11 19 11 C19.23666145 21.87506217 19.23666145 21.87506217 19.54052734 32.74829102 C19.77296263 45.16071122 19.77296263 45.16071122 16.20703125 49.328125 C15.16532939 50.25054215 14.09846318 51.14596558 13 52 C12.33613281 52.75667969 11.67226563 53.51335937 10.98828125 54.29296875 C9.86378725 55.56424984 8.73878055 56.83507759 7.61328125 58.10546875 C5.94061609 60.00016275 5.94061609 60.00016275 4.48046875 62.23828125 C3.74763672 63.11033203 3.74763672 63.11033203 3 64 C2.01 64 1.02 64 0 64 C0 42.88 0 21.76 0 0 Z " fill="#646465" transform="translate(17,66)"/>
<path d="M0 0 C0.99 0 1.98 0 3 0 C2.42333499 3.46757778 1.28994833 5.0466356 -1.25 7.4375 C-1.83265625 7.99308594 -2.4153125 8.54867187 -3.015625 9.12109375 C-3.67046875 9.74113281 -4.3253125 10.36117187 -5 11 C-8.81796969 14.66276767 -12.09677922 18.50659895 -15.3125 22.6875 C-16.20385746 23.83768125 -17.09580045 24.98740894 -17.98828125 26.13671875 C-18.6836499 27.06000977 -18.6836499 27.06000977 -19.39306641 28.00195312 C-21 30 -21 30 -23.10302734 32.15429688 C-29.79985569 39.36327954 -30.14277438 45.5305616 -30 55.125 C-30.00811083 56.47658897 -30.01980542 57.82816137 -30.03515625 59.1796875 C-30.05854924 62.45470587 -30.04598696 65.72534502 -30 69 C-30.99 69.495 -30.99 69.495 -32 70 C-33.56254461 39.31677389 -33.56254461 39.31677389 -24.625 28.9375 C-22.74893541 26.8688274 -20.83519479 24.86607256 -18.85253906 22.89941406 C-15.9484764 19.92186958 -13.50363693 16.62613711 -11 13.3125 C-10.11793733 12.18876546 -9.23269856 11.06751403 -8.34375 9.94921875 C-6.92395232 8.16264 -5.50658004 6.37412509 -4.09375 4.58203125 C-2.80042044 2.99389862 -1.41250852 1.48313394 0 0 Z " fill="#3A3A3A" transform="translate(67,102)"/>
<path d="M0 0 C0.99 0 1.98 0 3 0 C2.42100425 3.43637736 1.31469072 5.04578127 -1.1875 7.4375 C-1.81140625 8.035625 -2.4353125 8.63375 -3.078125 9.25 C-5.65150424 11.59323963 -8.28874069 13.8177669 -11 16 C-10.4472637 11.84460746 -8.14719041 9.44975572 -5.5 6.3125 C-4.6853125 5.33925781 -3.870625 4.36601563 -3.03125 3.36328125 C-1 1 -1 1 0 0 Z " fill="#323333" transform="translate(67,102)"/>
<path d="M0 0 C0 0.99 0 1.98 0 3 C-1.79296875 4.578125 -1.79296875 4.578125 -4.1875 6.25 C-8.48584524 9.42969073 -11.15256105 12.4992094 -14 17 C-14.66 16.67 -15.32 16.34 -16 16 C-11.76654967 9.82621827 -6.83929555 3.41964778 0 0 Z " fill="#3C3D3F" transform="translate(144,79)"/>
<path d="M0 0 C0.33 0 0.66 0 1 0 C1.125 6.625 1.125 6.625 0 10 C-0.22797562 12.73289293 -0.41668187 15.45042204 -0.5625 18.1875 C-0.60568359 18.93708984 -0.64886719 19.68667969 -0.69335938 20.45898438 C-0.79922685 22.30578375 -0.9000976 24.15286834 -1 26 C-1.33 26 -1.66 26 -2 26 C-2.05849554 22.79174438 -2.09376162 19.58362767 -2.125 16.375 C-2.15013672 15.01955078 -2.15013672 15.01955078 -2.17578125 13.63671875 C-2.21201643 8.67249848 -1.96444146 4.65588093 0 0 Z " fill="#484748" transform="translate(125,101)"/>
<path d="M0 0 C0.66 0.33 1.32 0.66 2 1 C1.06027344 2.03060547 1.06027344 2.03060547 0.1015625 3.08203125 C-0.71570312 3.98308594 -1.53296875 4.88414063 -2.375 5.8125 C-3.18710937 6.70582031 -3.99921875 7.59914063 -4.8359375 8.51953125 C-7.09072907 10.99632674 -7.09072907 10.99632674 -9 14 C-9.99 13.67 -10.98 13.34 -12 13 C-11.319375 12.34 -10.63875 11.68 -9.9375 11 C-6.43274653 7.50531766 -3.22778212 3.74869221 0 0 Z " fill="#3D3E3D" transform="translate(29,116)"/>
<path d="M0 0 C0.66 0.33 1.32 0.66 2 1 C-3.445 7.435 -3.445 7.435 -9 14 C-9.66 13.67 -10.32 13.34 -11 13 C-10.06027344 11.96939453 -10.06027344 11.96939453 -9.1015625 10.91796875 C-8.28429687 10.01691406 -7.46703125 9.11585937 -6.625 8.1875 C-5.81289063 7.29417969 -5.00078125 6.40085937 -4.1640625 5.48046875 C-1.90927093 3.00367326 -1.90927093 3.00367326 0 0 Z " fill="#0B0B0B" transform="translate(30,117)"/>
<path d="M0 0 C0.33 0 0.66 0 1 0 C1.57256004 3.92612596 1.74950876 5.91988086 -0.55859375 9.24609375 C-2.31655476 11.23043203 -4.10884918 13.14261973 -6 15 C-6.99 14.67 -7.98 14.34 -9 14 C-7.8553125 13.1646875 -7.8553125 13.1646875 -6.6875 12.3125 C-2.53855422 8.74247688 -0.77115289 5.39807026 0 0 Z " fill="#3D3D3E" transform="translate(206,153)"/>
<path d="M0 0 C0.66 0 1.32 0 2 0 C3.35384615 6.27692308 3.35384615 6.27692308 1.5625 9.9375 C0.7890625 10.9584375 0.7890625 10.9584375 0 12 C-0.99 11.67 -1.98 11.34 -3 11 C-2.505 10.484375 -2.01 9.96875 -1.5 9.4375 C0.49649241 6.19319983 0.21564385 3.73782666 0 0 Z " fill="#313233" transform="translate(205,76)"/>
<path d="M0 0 C0 3 0 3 -1.125 4.6875 C-3.81800039 6.57260027 -5.79243812 6.34122999 -9 6 C-9.66 5.34 -10.32 4.68 -11 4 C-10.37351562 3.87882813 -9.74703125 3.75765625 -9.1015625 3.6328125 C-8.28429687 3.46523437 -7.46703125 3.29765625 -6.625 3.125 C-5.81289063 2.96257812 -5.00078125 2.80015625 -4.1640625 2.6328125 C-1.81326077 2.13341068 -1.81326077 2.13341068 0 0 Z " fill="#444545" transform="translate(34,172)"/>
</svg>
